<svg width="177" height="77" viewBox="0 0 177 77" fill="none" xmlns="http://www.w3.org/2000/svg">
<g clip-path="url(#clip0_9_95)">
<path d="M56.2609 51.5754H51.541L47.988 20.7871L39.6098 48.8935C39.0074 50.9273 37.9293 51.9452 36.3755 51.9472C35.8633 51.9662 35.3555 51.8452 34.9067 51.597C34.458 51.3489 34.0852 50.9831 33.8285 50.5389C33.3668 49.758 33.0109 48.9192 32.7699 48.0445L24.8567 20.5441L21.0931 51.5783H16.4142L20.283 19.7477C20.478 18.2428 20.8396 17.1547 21.368 16.4833C22.1107 15.5464 23.2064 15.077 24.6549 15.075C26.9183 15.075 28.439 16.4472 29.2168 19.1914L36.3755 44.3701L43.7711 19.616C44.0592 18.5578 44.5164 17.5532 45.1251 16.6414C45.9205 15.5991 47.0776 15.077 48.5962 15.075C49.9941 15.075 51.0459 15.5269 51.7516 16.4306C52.1463 16.935 52.4186 17.5243 52.547 18.1521C52.6172 18.5766 52.6991 19.1534 52.7868 19.8765L56.2609 51.5754Z" fill="white"/>
<path d="M83.1967 40.1864L86.2468 41.8845C85.4163 44.7713 84.1969 46.9925 82.5885 48.5481C80.2022 50.902 77.2146 52.079 73.6255 52.079C69.8609 52.079 66.7056 50.7253 64.1595 48.0182C61.8948 45.6808 60.6467 42.5408 60.6883 39.2847C60.6883 35.5332 62.014 32.4005 64.6654 29.8866C67.0154 27.6328 70.1612 26.4023 73.4149 26.464C77.0723 26.464 80.1126 27.7825 82.5358 30.4194C83.4426 31.4488 84.2276 32.5796 84.8753 33.7893L69.1542 44.0891L67.2972 40.9037L79.2489 32.8875C78.5863 32.0695 77.7298 31.4304 76.7574 31.0284C75.6954 30.5801 74.5528 30.3549 73.4003 30.3667C72.3475 30.3466 71.3015 30.5407 70.3258 30.9373C69.3502 31.3338 68.4651 31.9246 67.7242 32.6738C66.902 33.4871 66.2545 34.46 65.8216 35.5329C65.3886 36.6058 65.1792 37.756 65.2064 38.9128C65.1704 41.336 66.0959 43.6744 67.7798 45.4154C68.5537 46.2968 69.5091 47 70.5803 47.4766C71.6515 47.9532 72.813 48.1919 73.9852 48.1763C75.6902 48.1737 77.3608 47.6962 78.8103 46.7973C80.9041 45.5422 82.3662 43.3386 83.1967 40.1864Z" fill="white"/>
<path d="M114.961 15.4468V38.2833C114.961 42.2475 113.856 45.4505 111.647 47.8922C109.082 50.6912 105.926 52.0897 102.181 52.0877C98.3798 52.0877 95.2332 50.7517 92.7417 48.0796C90.4389 45.6893 89.1769 42.4822 89.2325 39.1617C89.204 37.5061 89.5111 35.8619 90.1354 34.3286C90.7597 32.7952 91.6881 31.4046 92.8645 30.2408C94.0326 29.0545 95.4241 28.1121 96.9586 27.4682C98.4649 26.8138 100.089 26.475 101.731 26.4728C104.31 26.4728 106.678 27.3511 108.834 29.1078V33.7922C108.144 33.1443 107.399 32.5566 106.609 32.0355C105.266 31.1919 103.714 30.7435 102.129 30.7414C101.026 30.7166 99.9308 30.918 98.9093 31.3335C97.8878 31.7489 96.9622 32.3694 96.1895 33.1568C94.5636 34.7847 93.7506 36.8195 93.7506 39.2612C93.7191 41.4356 94.5364 43.5365 96.0286 45.1167C96.7809 45.9765 97.7115 46.6616 98.7555 47.1243C99.7995 47.587 100.932 47.8161 102.073 47.7956C104.902 47.7956 107.192 46.5923 108.942 44.1857C110.071 42.6106 110.637 40.3367 110.639 37.364V15.4468H114.961Z" fill="#FF931E"/>
<path d="M151.655 51.5754H147.333V46.2586C147.35 44.1701 146.863 42.6086 145.871 41.5741C144.865 40.5982 143.159 40.12 140.753 40.1395H136.621V51.5578H132.299V15.4468H136.621V36.3657H138.876C140.342 36.3481 141.42 36.0826 142.11 35.5693C142.675 35.1633 143.338 34.3133 144.099 33.0192L147.652 26.9939H152.424L148.33 33.7892C147.841 34.6641 147.283 35.4983 146.66 36.2837C146.172 36.764 145.608 37.1598 144.99 37.4548C147.219 37.9525 148.885 38.9128 149.988 40.3357C151.092 41.7586 151.644 43.6831 151.646 46.1092L151.655 51.5754Z" fill="#FF931E"/>
<path d="M157.302 51.5753V47.7693H167.005C169.11 47.6814 170.335 47.6112 170.692 47.5585C171.219 47.4363 171.681 47.1234 171.991 46.6801C172.333 46.2011 172.509 45.6234 172.494 45.0347C172.494 43.8324 171.761 42.9746 170.295 42.4612L161.13 39.2319C159.344 38.5937 158.097 37.7798 157.39 36.7902C156.675 35.7934 156.302 34.5914 156.328 33.3647C156.328 29.1175 159.333 26.9939 165.344 26.9939H175.166V30.8H164.671C163.501 30.8 162.624 30.9229 162.039 31.1718C161.139 31.5622 160.687 32.3224 160.685 33.4525C160.674 33.7642 160.724 34.075 160.834 34.367C160.943 34.659 161.109 34.9264 161.323 35.1536C161.804 35.5629 162.363 35.8697 162.966 36.0553L171.558 39.0797C173.377 39.7179 174.658 40.4089 175.4 41.1525C175.927 41.697 176.338 42.3416 176.612 43.0481C176.885 43.7546 177.014 44.5087 176.991 45.266C176.991 47.2471 176.267 48.8311 174.818 50.0178C173.528 51.062 171.522 51.5841 168.8 51.5841L157.302 51.5753Z" fill="#FF931E"/>
<path d="M129.93 25.0118H127.576C127.498 25.0138 127.421 25.0001 127.348 24.9715C127.275 24.943 127.209 24.9001 127.153 24.8456C127.097 24.791 127.053 24.7258 127.023 24.6538C126.992 24.5818 126.977 24.5044 126.977 24.4263V18.6937C126.977 17.8326 126.635 17.0067 126.027 16.3978C125.419 15.7889 124.594 15.4468 123.734 15.4468C122.873 15.4468 122.049 15.7889 121.44 16.3978C120.832 17.0067 120.491 17.8326 120.491 18.6937V24.4146C120.491 24.5699 120.429 24.7188 120.319 24.8286C120.21 24.9384 120.061 25.0001 119.906 25.0001H117.549C117.307 24.9977 117.073 25.0869 116.894 25.2498C116.715 25.4127 116.604 25.6372 116.584 25.8784C116.574 26.0066 116.592 26.1354 116.634 26.2566C116.677 26.3778 116.744 26.4888 116.832 26.5828C116.919 26.6768 117.025 26.7517 117.143 26.8028C117.261 26.8539 117.388 26.8801 117.517 26.8797H121.59H125.901H129.974C130.102 26.8796 130.229 26.8531 130.347 26.8019C130.465 26.7507 130.571 26.6759 130.659 26.582C130.746 26.4882 130.814 26.3773 130.857 26.2563C130.9 26.1353 130.918 26.0067 130.91 25.8784C130.886 25.6367 130.772 25.413 130.59 25.2522C130.409 25.0914 130.173 25.0055 129.93 25.0118Z" fill="#FF931E"/>
<path d="M121.578 29.2014V47.7985C121.578 48.2645 121.729 48.718 122.008 49.0911C122.287 49.4642 122.679 49.7369 123.125 49.8685V50.3574C123.123 50.5182 123.182 50.6739 123.291 50.7921C123.4 50.9104 123.55 50.9822 123.71 50.9927C123.792 50.9955 123.873 50.9817 123.949 50.9523C124.025 50.9229 124.094 50.8785 124.153 50.8216C124.211 50.7647 124.257 50.6966 124.289 50.6214C124.32 50.5462 124.336 50.4653 124.336 50.3837V49.8743C124.783 49.7428 125.175 49.4701 125.453 49.097C125.732 48.7239 125.883 48.2704 125.883 47.8044V29.2014H121.578Z" fill="#FF931E"/>
<path d="M65.7474 64.276C60.6204 69.1033 54.1647 72.2793 47.2151 73.3932C40.2656 74.507 33.1422 73.5075 26.7662 70.5238C18.5677 66.6936 12.145 59.8663 8.8168 51.4436C6.78344 46.2829 5.99668 40.7143 6.52062 35.1915C7.04455 29.6687 8.86437 24.3479 11.8318 19.6628C14.2318 15.8786 17.3268 12.5842 20.9527 9.95436C22.7799 8.62428 24.7295 7.4714 26.775 6.51132C34.9877 2.65955 44.3702 2.13776 52.9585 5.05517C61.5467 7.97258 68.6748 14.103 72.8505 22.1631C72.9412 22.1133 73.0348 22.0665 73.1283 22.0255C69.2538 13.8769 62.6548 7.34161 54.4741 3.55136C48.9024 0.978348 42.7964 -0.222228 36.6665 0.0499515C30.5367 0.322131 24.5609 2.05916 19.2385 5.11589C13.9161 8.17262 9.40171 12.4603 6.07256 17.6206C2.74341 22.7809 0.696173 28.664 0.101922 34.7782C-0.492328 40.8925 0.383665 47.0603 2.6567 52.7664C4.92974 58.4725 8.53381 63.551 13.1677 67.5777C17.8017 71.6044 23.3309 74.4622 29.2934 75.9124C35.2559 77.3626 41.4785 77.3631 47.4412 75.9138C52.6235 74.646 57.4872 72.3165 61.7252 69.0723C65.9632 65.8281 69.4834 61.7396 72.0639 57.0649C71.9294 57.0356 71.7978 57.0005 71.6691 56.9595C70.0296 59.6516 68.0381 62.1122 65.7474 64.276Z" fill="#FF931E"/>
<path d="M93.7623 59.8755V54.6232H94.622V59.8755H93.7623ZM94.2594 59.8755V59.047H95.4818C95.782 59.0671 96.0784 58.9706 96.3094 58.7776C96.4097 58.6803 96.4877 58.5624 96.5382 58.432C96.5887 58.3016 96.6104 58.1618 96.6018 58.0223V56.4764C96.6106 56.3364 96.589 56.1961 96.5386 56.0652C96.4881 55.9343 96.4099 55.8159 96.3094 55.7181C96.0779 55.5262 95.7816 55.4308 95.4818 55.4517H94.2594V54.6232H95.4613C96.0063 54.5894 96.5433 54.7665 96.9615 55.1179C97.1429 55.2985 97.284 55.5156 97.3752 55.7548C97.4665 55.9941 97.5059 56.25 97.4908 56.5057V57.993C97.4991 58.3412 97.4186 58.6859 97.2568 58.9943C97.1007 59.2771 96.8605 59.5042 96.5696 59.6443C96.2215 59.8077 95.8398 59.8869 95.4555 59.8755H94.2594Z" fill="white"/>
<path d="M100.012 59.9282C99.7977 59.9418 99.5833 59.9109 99.3819 59.8373C99.1806 59.7637 98.9967 59.6491 98.8418 59.5008C98.6968 59.3375 98.5854 59.1472 98.5142 58.9406C98.4429 58.7341 98.4131 58.5155 98.4266 58.2975V57.6768C98.4155 57.4638 98.4465 57.2508 98.5177 57.0498C98.589 56.8489 98.6991 56.664 98.8418 56.5057C99.1702 56.2318 99.5841 56.0818 100.012 56.0818C100.439 56.0818 100.853 56.2318 101.181 56.5057C101.325 56.667 101.436 56.8555 101.507 57.06C101.578 57.2646 101.607 57.4812 101.594 57.6973V58.318C101.607 58.535 101.578 58.7525 101.507 58.9581C101.437 59.1636 101.326 59.3531 101.181 59.5154C101.025 59.6607 100.84 59.7723 100.639 59.8433C100.438 59.9143 100.224 59.9432 100.012 59.9282ZM100.012 59.1026C100.11 59.1084 100.208 59.0925 100.3 59.0561C100.391 59.0197 100.473 58.9636 100.541 58.8918C100.675 58.7272 100.741 58.5181 100.728 58.3063V57.6768C100.744 57.4647 100.676 57.2549 100.541 57.0912C100.397 56.9575 100.208 56.8831 100.012 56.8831C99.8152 56.8831 99.6261 56.9575 99.4823 57.0912C99.3456 57.2544 99.2774 57.4643 99.2922 57.6768V58.2975C99.2795 58.5097 99.3474 58.7188 99.4823 58.883C99.5489 58.9564 99.6309 59.0141 99.7224 59.0521C99.8139 59.09 99.9126 59.1073 100.012 59.1026Z" fill="white"/>
<path d="M105.676 60.18L104.147 56.1251H104.983L106.185 59.3837L105.676 60.18ZM106.694 56.1251H107.533L105.904 60.7509C105.842 60.9698 105.704 61.1596 105.515 61.2867C105.303 61.398 105.064 61.4505 104.825 61.4389H104.641V60.6045H104.825C104.928 60.608 105.029 60.5815 105.117 60.5284C105.203 60.4624 105.268 60.3729 105.305 60.2708L106.694 56.1251Z" fill="white"/>
<path d="M109.51 59.9282C109.296 59.9418 109.081 59.9109 108.88 59.8373C108.679 59.7637 108.495 59.6491 108.34 59.5008C108.049 59.1699 107.901 58.7373 107.928 58.2975V57.6768C107.914 57.4607 107.944 57.2441 108.014 57.0395C108.085 56.835 108.196 56.6465 108.34 56.4852C108.668 56.2113 109.082 56.0613 109.51 56.0613C109.937 56.0613 110.351 56.2113 110.679 56.4852C110.824 56.6465 110.934 56.835 111.005 57.0395C111.076 57.2441 111.105 57.4607 111.092 57.6768V58.2975C111.106 58.5144 111.076 58.732 111.006 58.9376C110.935 59.1431 110.824 59.3326 110.679 59.4949C110.525 59.6443 110.341 59.76 110.14 59.8346C109.939 59.9092 109.724 59.941 109.51 59.9282ZM109.51 59.1026C109.608 59.1086 109.706 59.0928 109.798 59.0563C109.889 59.0199 109.972 58.9637 110.039 58.8918C110.173 58.7271 110.24 58.5181 110.226 58.3062V57.6768C110.242 57.4647 110.175 57.2549 110.039 57.0912C109.971 57.0201 109.889 56.9647 109.797 56.9288C109.706 56.8929 109.608 56.8774 109.51 56.8834C109.412 56.8784 109.314 56.8943 109.223 56.9302C109.131 56.966 109.049 57.0209 108.98 57.0912C108.845 57.2549 108.778 57.4647 108.793 57.6768V58.2975C108.78 58.5093 108.847 58.7184 108.98 58.883C109.047 58.9559 109.13 59.0133 109.221 59.0512C109.312 59.0891 109.411 59.1067 109.51 59.1026Z" fill="white"/>
<path d="M112.835 56.1251V58.4058C112.829 58.4985 112.841 58.5916 112.871 58.6795C112.901 58.7674 112.949 58.8485 113.01 58.9181C113.102 59.024 113.224 59.0984 113.36 59.1309C113.496 59.1634 113.638 59.1523 113.767 59.0992C113.897 59.0462 114.006 58.9538 114.08 58.8351C114.154 58.7165 114.189 58.5776 114.18 58.438L114.23 59.2373C114.159 59.4236 114.042 59.5889 113.89 59.7174C113.711 59.8632 113.484 59.9382 113.253 59.9282C113.076 59.9383 112.899 59.908 112.735 59.8395C112.571 59.7711 112.426 59.6662 112.308 59.533C112.068 59.2148 111.95 58.8212 111.975 58.4234V56.1251H112.835ZM114.177 59.8755V56.1251H115.034V59.8755H114.177Z" fill="white"/>
<path d="M116.095 59.8756V56.1251H116.973V59.8756H116.095ZM118.18 57.0913C118.123 57.0263 118.051 56.977 117.97 56.9478C117.876 56.9141 117.777 56.8972 117.677 56.898C117.585 56.8925 117.492 56.9069 117.405 56.9402C117.318 56.9735 117.24 57.025 117.174 57.0913C117.048 57.24 116.984 57.4321 116.996 57.627L116.92 56.7809C117.015 56.5742 117.161 56.3949 117.344 56.2598C117.513 56.135 117.719 56.0692 117.929 56.0724C118.079 56.0697 118.229 56.0945 118.37 56.1456C118.501 56.1933 118.619 56.2682 118.718 56.3652L118.18 57.0913Z" fill="white"/>
<path d="M121.216 59.8755V56.1251H122.078V59.8755H121.216ZM123.427 59.8755V57.6563C123.44 57.454 123.376 57.2542 123.248 57.0971C123.159 56.9894 123.039 56.9125 122.904 56.8775C122.769 56.8424 122.627 56.851 122.497 56.902C122.367 56.953 122.257 57.0438 122.181 57.1614C122.106 57.279 122.07 57.4174 122.078 57.5568L122.002 56.7809C122.098 56.572 122.246 56.3915 122.432 56.2568C122.61 56.1332 122.821 56.0687 123.038 56.0724C123.213 56.0635 123.388 56.0963 123.548 56.1681C123.708 56.2398 123.849 56.3485 123.959 56.4852C124.196 56.8278 124.31 57.2405 124.283 57.6563V59.8785L123.427 59.8755ZM125.634 59.8755V57.6563C125.648 57.4517 125.583 57.2495 125.453 57.0912C125.387 57.0231 125.307 56.9701 125.219 56.9357C125.131 56.9013 125.036 56.8865 124.941 56.8922C124.851 56.8867 124.761 56.9011 124.677 56.9345C124.593 56.9679 124.518 57.0194 124.456 57.0854C124.333 57.2361 124.272 57.4272 124.283 57.6212L124.12 56.8278C124.223 56.6022 124.383 56.4074 124.585 56.2627C124.771 56.1334 124.992 56.0649 125.219 56.0665C125.397 56.0567 125.576 56.089 125.739 56.1607C125.903 56.2324 126.047 56.3415 126.161 56.4793C126.403 56.8196 126.521 57.2333 126.494 57.6504V59.8726L125.634 59.8755Z" fill="white"/>
<path d="M129.109 59.9282C128.883 59.9516 128.655 59.9243 128.441 59.8483C128.227 59.7723 128.032 59.6494 127.872 59.4887C127.711 59.328 127.589 59.1335 127.513 58.9193C127.437 58.7051 127.409 58.4767 127.433 58.2506V57.8261C127.403 57.3567 127.554 56.8937 127.854 56.532C128.008 56.3745 128.194 56.2519 128.399 56.1726C128.604 56.0933 128.824 56.0591 129.044 56.0724C129.261 56.0622 129.476 56.1055 129.672 56.1984C129.868 56.2914 130.038 56.4311 130.167 56.6052C130.456 57.0496 130.594 57.5751 130.562 58.1042V58.3502H128.021V57.7178H129.775V57.6797C129.767 57.4589 129.69 57.2462 129.556 57.0707C129.496 56.9986 129.42 56.9413 129.334 56.9033C129.249 56.8652 129.155 56.8473 129.062 56.8512C128.952 56.8472 128.843 56.8671 128.742 56.9096C128.641 56.9521 128.551 57.016 128.477 57.0971C128.323 57.293 128.247 57.5392 128.263 57.788V58.2623C128.256 58.3812 128.272 58.5003 128.312 58.6125C128.352 58.7248 128.414 58.8278 128.494 58.9152C128.581 58.9953 128.683 59.057 128.794 59.0968C128.905 59.1365 129.023 59.1534 129.141 59.1465C129.285 59.1454 129.428 59.1176 129.562 59.0645C129.698 59.0108 129.825 58.9346 129.936 58.8391L130.498 59.3661C130.311 59.5422 130.094 59.6821 129.857 59.7789C129.62 59.8794 129.366 59.9302 129.109 59.9282Z" fill="white"/>
<path d="M132.67 59.937C132.492 59.9468 132.313 59.9146 132.149 59.8429C131.985 59.7712 131.84 59.6621 131.726 59.5242C131.482 59.1845 131.364 58.7704 131.392 58.3531V57.6475C131.366 57.2309 131.482 56.8176 131.723 56.4764C131.834 56.339 131.977 56.23 132.138 56.1582C132.3 56.0865 132.476 56.0541 132.653 56.0636C132.861 56.0611 133.065 56.1223 133.238 56.2393C133.42 56.3646 133.565 56.5365 133.659 56.737L133.583 57.5363C133.588 57.409 133.562 57.2823 133.507 57.1674C133.46 57.0688 133.383 56.9877 133.287 56.9361C133.179 56.8805 133.058 56.8533 132.936 56.857C132.843 56.8516 132.75 56.8675 132.664 56.9035C132.578 56.9395 132.501 56.9947 132.439 57.0649C132.313 57.2328 132.25 57.4405 132.264 57.6505V58.359C132.25 58.5689 132.313 58.7767 132.439 58.9445C132.502 59.0128 132.579 59.0664 132.665 59.1013C132.751 59.1362 132.844 59.1517 132.936 59.1466C133.059 59.1507 133.18 59.1224 133.287 59.0646C133.383 59.0122 133.459 58.9313 133.507 58.8333C133.561 58.7192 133.587 58.5937 133.583 58.4673L133.632 59.2929C133.564 59.4781 133.443 59.639 133.284 59.7555C133.106 59.8838 132.89 59.9478 132.67 59.937ZM133.574 59.8756V54.6232H134.451V59.8756H133.574Z" fill="white"/>
<path d="M135.457 55.4868V54.6085H136.314V55.4868H135.457ZM135.457 59.8785V56.1251H136.314V59.8756L135.457 59.8785Z" fill="white"/>
<path d="M138.882 59.9282C138.659 59.9417 138.436 59.9098 138.227 59.8343C138.017 59.7588 137.825 59.6413 137.662 59.489C137.51 59.3211 137.394 59.1245 137.319 58.9109C137.244 58.6972 137.213 58.4707 137.226 58.2447V57.7353C137.213 57.5123 137.244 57.2888 137.319 57.0781C137.393 56.8674 137.509 56.6737 137.659 56.5086C137.823 56.3565 138.015 56.2393 138.225 56.1643C138.436 56.0893 138.659 56.058 138.882 56.0724C139.16 56.0681 139.437 56.1209 139.695 56.2275C139.926 56.3196 140.129 56.4735 140.279 56.6725L139.695 57.22C139.598 57.1178 139.482 57.037 139.352 56.9829C139.219 56.9267 139.076 56.8978 138.931 56.898C138.819 56.8866 138.705 56.9005 138.598 56.9385C138.491 56.9765 138.394 57.0378 138.314 57.1179C138.233 57.1979 138.172 57.2949 138.134 57.4016C138.095 57.5084 138.081 57.6224 138.092 57.7353V58.2447C138.079 58.4763 138.158 58.7036 138.311 58.8771C138.394 58.9551 138.491 59.0153 138.598 59.0541C138.705 59.0929 138.818 59.1094 138.931 59.1026C139.076 59.1021 139.22 59.0712 139.352 59.0118C139.483 58.9513 139.6 58.8634 139.695 58.7542L140.279 59.3397C140.127 59.5345 139.925 59.6851 139.695 59.776C139.436 59.8794 139.16 59.9312 138.882 59.9282Z" fill="white"/>
<path d="M142.122 59.9282C141.775 59.9518 141.432 59.8476 141.157 59.6355C141.042 59.5216 140.954 59.3839 140.898 59.2321C140.843 59.0803 140.821 58.9182 140.835 58.7571C140.823 58.6026 140.846 58.4474 140.903 58.303C140.959 58.1586 141.047 58.0287 141.16 57.9227C141.441 57.7169 141.786 57.6182 142.133 57.6446H143.134L143.186 58.318H142.136C141.999 58.3074 141.862 58.3458 141.75 58.4263C141.706 58.4684 141.671 58.52 141.65 58.5773C141.628 58.6346 141.619 58.6961 141.625 58.7571C141.62 58.8244 141.633 58.8917 141.661 58.9527C141.69 59.0136 141.734 59.0663 141.788 59.1055C141.941 59.1922 142.116 59.2319 142.291 59.2197C142.498 59.2309 142.705 59.2 142.9 59.129C142.961 59.1091 143.013 59.0697 143.05 59.0168C143.086 58.9639 143.104 58.9004 143.101 58.8362L143.177 59.369C143.137 59.4865 143.061 59.5886 142.961 59.6618C142.849 59.744 142.722 59.8036 142.587 59.8375C142.436 59.888 142.28 59.9186 142.122 59.9282ZM143.101 59.8755V57.4982C143.107 57.4088 143.093 57.3192 143.061 57.2354C143.03 57.1516 142.98 57.0755 142.917 57.0122C142.771 56.8875 142.582 56.8245 142.391 56.8365C142.247 56.8372 142.104 56.8599 141.967 56.9039C141.831 56.9451 141.704 57.0106 141.592 57.0971L141.008 56.614C141.166 56.4344 141.367 56.2975 141.592 56.2158C141.845 56.1171 142.114 56.0683 142.385 56.0724C142.79 56.0457 143.19 56.1757 143.502 56.4354C143.637 56.5692 143.742 56.7303 143.81 56.9081C143.879 57.0858 143.908 57.276 143.897 57.466V59.8755H143.101Z" fill="white"/>
<path d="M145.806 54.6232V58.7718C145.801 58.8486 145.826 58.9243 145.877 58.9826C145.901 59.0086 145.931 59.0289 145.965 59.0421C145.998 59.0552 146.034 59.0609 146.07 59.0587H146.327V59.8843H145.856C145.732 59.8911 145.608 59.8714 145.492 59.8265C145.376 59.7815 145.271 59.7124 145.183 59.6238C145.013 59.4193 144.928 59.1575 144.944 58.8918V54.6232H145.806Z" fill="white"/>
<path d="M148.424 59.9282C148.108 59.9309 147.794 59.8835 147.494 59.7877C147.22 59.7009 146.965 59.5628 146.742 59.3807L147.263 58.7308C147.443 58.8548 147.64 58.9533 147.847 59.0235C148.035 59.0924 148.233 59.1281 148.432 59.1289C148.638 59.1399 148.843 59.1039 149.032 59.0235C149.092 58.9972 149.143 58.9538 149.179 58.8986C149.215 58.8435 149.234 58.779 149.234 58.7132C149.238 58.6607 149.228 58.608 149.203 58.5613C149.179 58.5146 149.142 58.4758 149.096 58.4497C148.982 58.3946 148.859 58.3608 148.734 58.3502L148.254 58.3033C148.096 58.2857 147.944 58.2623 147.789 58.236C147.643 58.2096 147.502 58.1613 147.371 58.0925C147.248 58.0245 147.146 57.923 147.078 57.7997C146.994 57.6321 146.955 57.4455 146.964 57.2581C146.954 57.0918 146.983 56.9254 147.05 56.7727C147.117 56.62 147.219 56.4853 147.347 56.3798C147.672 56.1594 148.062 56.0562 148.453 56.087C148.735 56.0855 149.016 56.127 149.286 56.21C149.547 56.2905 149.792 56.4121 150.014 56.5701L149.5 57.1995C149.333 57.0977 149.154 57.0161 148.968 56.9565C148.799 56.9031 148.624 56.8755 148.447 56.8746C148.269 56.8647 148.092 56.8978 147.929 56.9712C147.875 56.9975 147.829 57.0392 147.798 57.0912C147.767 57.1433 147.751 57.2033 147.754 57.264C147.752 57.3061 147.762 57.3478 147.784 57.3838C147.806 57.4198 147.838 57.4485 147.877 57.466C147.978 57.5151 148.087 57.5449 148.198 57.5538C148.333 57.5538 148.476 57.586 148.631 57.5977C148.786 57.6094 148.953 57.6329 149.117 57.6592C149.275 57.6838 149.428 57.7342 149.57 57.8085C149.709 57.8835 149.825 57.9961 149.903 58.1335C149.995 58.3145 150.039 58.5163 150.029 58.719C150.04 58.892 150.009 59.065 149.938 59.2231C149.867 59.3812 149.759 59.5197 149.623 59.6267C149.267 59.8575 148.846 59.9636 148.424 59.9282Z" fill="white"/>
<path d="M154.331 59.9282C154.117 59.942 153.902 59.9111 153.701 59.8375C153.5 59.7639 153.316 59.6493 153.161 59.5008C153.016 59.3375 152.905 59.1471 152.833 58.9406C152.762 58.7341 152.732 58.5155 152.746 58.2975V57.6768C152.732 57.4605 152.762 57.2436 152.833 57.0389C152.904 56.8342 153.016 56.6459 153.161 56.4852C153.489 56.2102 153.903 56.0596 154.331 56.0596C154.758 56.0596 155.173 56.2102 155.5 56.4852C155.646 56.6459 155.757 56.8342 155.829 57.0389C155.9 57.2436 155.93 57.4605 155.916 57.6768V58.2975C155.93 58.5147 155.9 58.7325 155.829 58.9382C155.757 59.1438 155.646 59.3331 155.5 59.4949C155.346 59.6443 155.162 59.76 154.961 59.8346C154.76 59.9092 154.545 59.9411 154.331 59.9282ZM154.331 59.1026C154.429 59.1086 154.528 59.0928 154.62 59.0564C154.712 59.02 154.795 58.9638 154.863 58.8918C154.995 58.7265 155.062 58.5179 155.05 58.3062V57.6768C155.064 57.4649 154.997 57.2556 154.863 57.0912C154.719 56.9575 154.53 56.8831 154.334 56.8831C154.137 56.8831 153.948 56.9575 153.804 57.0912C153.668 57.2544 153.6 57.4643 153.614 57.6768V58.2975C153.602 58.5097 153.67 58.7188 153.804 58.883C153.871 58.9561 153.952 59.0137 154.043 59.0517C154.134 59.0897 154.232 59.107 154.331 59.1026Z" fill="white"/>
<path d="M156.887 59.8756V56.1251H157.746V59.8756H156.887ZM159.103 59.8756V57.6036C159.109 57.509 159.096 57.4142 159.065 57.3247C159.034 57.2351 158.985 57.1528 158.922 57.0825C158.854 57.0182 158.773 56.9687 158.685 56.9369C158.597 56.9052 158.503 56.892 158.41 56.898C158.321 56.8923 158.232 56.9049 158.148 56.9351C158.064 56.9654 157.987 57.0125 157.922 57.0737C157.861 57.1379 157.814 57.2139 157.784 57.297C157.754 57.3801 157.741 57.4685 157.746 57.5568L157.67 56.7809C157.765 56.5731 157.911 56.3927 158.094 56.2569C158.273 56.1312 158.487 56.0665 158.705 56.0724C158.881 56.062 159.057 56.0926 159.219 56.1617C159.381 56.2308 159.524 56.3365 159.638 56.4706C159.874 56.7984 159.99 57.1975 159.966 57.6007V59.8756H159.103Z" fill="white"/>
<path d="M162.706 56.8804V56.1251H164.461V56.8804H162.706ZM164.004 59.8931C163.877 59.9037 163.748 59.8861 163.628 59.8416C163.508 59.7971 163.399 59.7267 163.308 59.6355C163.15 59.4246 163.073 59.1636 163.092 58.9006V55.0418H163.955V58.7864C163.95 58.8595 163.969 58.932 164.007 58.9943C164.025 59.0195 164.049 59.0398 164.076 59.0531C164.104 59.0664 164.135 59.0724 164.165 59.0704H164.458V59.899L164.004 59.8931Z" fill="white"/>
<path d="M165.379 55.4868V54.6085H166.236V55.4868H165.379ZM165.379 59.8785V56.1251H166.236V59.8756L165.379 59.8785Z" fill="white"/>
<path d="M167.271 59.8755V56.1251H168.133V59.8755H167.271ZM169.482 59.8755V57.6563C169.495 57.454 169.431 57.2542 169.303 57.0971C169.238 57.0293 169.159 56.9764 169.072 56.942C168.985 56.9076 168.891 56.8926 168.797 56.898C168.708 56.8926 168.618 56.9053 168.534 56.9355C168.449 56.9657 168.372 57.0127 168.306 57.0737C168.246 57.1384 168.2 57.2145 168.17 57.2975C168.141 57.3806 168.128 57.4687 168.133 57.5568L168.057 56.7809C168.153 56.572 168.301 56.3915 168.487 56.2568C168.665 56.1333 168.877 56.0687 169.093 56.0724C169.268 56.0631 169.443 56.0956 169.603 56.1674C169.763 56.2392 169.904 56.3481 170.014 56.4852C170.253 56.8268 170.369 57.24 170.341 57.6563V59.8785L169.482 59.8755ZM171.689 59.8755V57.6563C171.702 57.4536 171.637 57.2538 171.508 57.0971C171.442 57.029 171.362 56.9759 171.274 56.9416C171.186 56.9072 171.091 56.8924 170.996 56.898C170.902 56.8891 170.808 56.9019 170.72 56.9354C170.631 56.9689 170.552 57.0222 170.488 57.0913C170.366 57.2423 170.306 57.4335 170.318 57.627L170.151 56.8336C170.255 56.6072 170.416 56.4123 170.619 56.2686C170.804 56.1389 171.025 56.0704 171.251 56.0724C171.43 56.0626 171.608 56.0948 171.772 56.1665C171.936 56.2382 172.081 56.3473 172.195 56.4852C172.438 56.8255 172.556 57.2392 172.529 57.6563V59.8785L171.689 59.8755Z" fill="white"/>
<path d="M175.166 59.9282C174.942 59.942 174.716 59.9105 174.504 59.8356C174.291 59.7607 174.096 59.6438 173.929 59.492C173.775 59.326 173.657 59.1303 173.581 58.9169C173.505 58.7034 173.473 58.4767 173.488 58.2506V57.8261C173.458 57.3562 173.61 56.8927 173.912 56.532C174.065 56.3744 174.25 56.2517 174.455 56.1724C174.66 56.0931 174.88 56.0589 175.099 56.0724C175.316 56.0617 175.532 56.1048 175.727 56.1977C175.923 56.2907 176.093 56.4307 176.222 56.6052C176.512 57.0493 176.651 57.5748 176.62 58.1042V58.3502H174.076V57.7178H175.83V57.6768C175.819 57.456 175.742 57.2437 175.608 57.0678C175.548 56.9957 175.472 56.9384 175.386 56.9003C175.301 56.8622 175.207 56.8444 175.114 56.8482C175.002 56.8421 174.89 56.861 174.786 56.9035C174.683 56.946 174.59 57.0112 174.514 57.0942C174.36 57.2901 174.284 57.5363 174.301 57.7851V58.2623C174.29 58.3805 174.304 58.4997 174.345 58.6114C174.385 58.7231 174.449 58.8246 174.533 58.9085C174.617 58.9925 174.718 59.0568 174.829 59.0969C174.941 59.1371 175.06 59.152 175.178 59.1407C175.321 59.1392 175.463 59.1114 175.596 59.0587C175.733 59.0056 175.86 58.9293 175.971 58.8332L176.532 59.3602C176.346 59.5363 176.129 59.6763 175.892 59.7731C175.663 59.8725 175.416 59.9253 175.166 59.9282Z" fill="white"/>
</g>
<defs>
<clipPath id="clip0_9_95">
<rect width="177" height="77" fill="white"/>
</clipPath>
</defs>
</svg>
